<mxfile host="app.diagrams.net" modified="2023-09-25T09:53:49.633Z" agent="Mozilla/5.0 (Macintosh; Intel Mac OS X 10_15_7) AppleWebKit/537.36 (KHTML, like Gecko) Chrome/116.0.0.0 Safari/537.36" version="21.7.5" etag="7N3-Amm7MqNRIDlPLsQJ" type="github">
  <diagram name="Page-1" id="MmUkHnH6OpEMv2tQOsJZ">
    <mxGraphModel>
      <root>
        <mxCell id="0" />
        <mxCell id="1" parent="0" />
      </root>
    </mxGraphModel>
  </diagram>
</mxfile>
